<svg width="300" height="55" viewBox="0 0 300 55" fill="none" xmlns="http://www.w3.org/2000/svg">
<path d="M83.625 36.674C88.689 36.674 92.79 32.57 92.79 27.508C92.79 22.447 88.689 18.341 83.625 18.341C78.562 18.341 74.46 22.447 74.46 27.508C74.46 32.57 78.562 36.674 83.625 36.674Z" fill="white"/>
<path d="M73.042 36.672C67.98 36.672 63.876 32.57 63.876 27.508C63.876 22.447 67.98 18.339 73.042 18.339V36.672Z" fill="white"/>
<path d="M94.208 46.785L94.21 38.089L102.91 38.093C102.911 42.902 99.018 46.785 94.208 46.785Z" fill="white"/>
<path d="M73.042 8.22299V16.931L64.332 16.933C64.332 12.123 68.232 8.22299 73.042 8.22299Z" fill="white"/>
<path d="M73.04 46.785L73.042 38.089L64.334 38.093C64.333 42.902 68.232 46.785 73.04 46.785Z" fill="white"/>
<path d="M104.798 35.388L104.794 19.633C107.477 21.233 109.274 24.158 109.274 27.508C109.274 30.856 107.479 33.786 104.798 35.388Z" fill="white"/>
<path d="M75.749 6.338L91.503 6.342C89.904 3.658 86.976 1.858 83.625 1.858C80.279 1.858 77.346 3.656 75.749 6.338Z" fill="white"/>
<path d="M91.3849 48.679L75.6309 48.677C77.2309 51.359 80.1579 53.156 83.5079 53.156C86.8559 53.156 89.7849 51.359 91.3849 48.679Z" fill="white"/>
<path d="M92.789 38.093C92.789 43.155 88.689 47.258 83.625 47.258C78.562 47.258 74.458 43.154 74.458 38.093H92.789Z" fill="white"/>
<path d="M94.2119 36.672C99.2729 36.672 103.377 32.57 103.377 27.508C103.377 22.447 99.2729 18.339 94.2119 18.339V36.672Z" fill="white"/>
<path d="M92.789 16.943C92.789 11.879 88.689 7.77399 83.625 7.77399C78.562 7.77399 74.458 11.879 74.458 16.943H92.789Z" fill="white"/>
<path d="M62.4555 35.388L62.4585 19.633C59.7745 21.233 57.9775 24.158 57.9775 27.508C57.9775 30.856 59.7725 33.786 62.4555 35.388Z" fill="white"/>
<path d="M102.911 16.936L94.211 16.932L94.209 8.229C99.018 8.229 102.911 12.125 102.911 16.936Z" fill="white"/>
<path d="M122.796 26.353H124.09C126.036 26.353 128.259 26.069 128.259 23.62C128.259 21.254 126.063 21.055 124.09 21.055H122.796V26.353ZM118.851 17.956H123.106C127.331 17.956 132.374 17.813 132.374 23.281C132.374 25.592 130.826 27.507 128.317 27.844V27.901C129.387 27.986 130.008 29.056 130.402 29.93L133.559 37.622H129.163L126.796 31.479C126.233 30.014 125.726 29.451 124.064 29.451H122.797V37.622H118.851V17.956Z" fill="white"/>
<path d="M141.129 35.198C142.284 35.198 143.186 34.693 143.777 33.903C144.397 33.086 144.566 32.042 144.566 30.915H142.932C141.241 30.915 138.734 31.198 138.734 33.424C138.735 34.664 139.776 35.198 141.129 35.198ZM136.707 23.871C138.171 23.196 140.143 22.775 141.75 22.775C146.173 22.775 148.003 24.604 148.003 28.887V30.746C148.003 32.212 148.033 33.311 148.06 34.382C148.088 35.483 148.145 36.496 148.229 37.622H144.905C144.764 36.861 144.764 35.902 144.736 35.452H144.68C143.805 37.057 141.919 37.959 140.2 37.959C137.635 37.959 135.129 36.41 135.129 33.649C135.129 31.479 136.171 30.212 137.608 29.507C139.044 28.803 140.906 28.661 142.482 28.661H144.567C144.567 26.324 143.523 25.535 141.297 25.535C139.693 25.535 138.086 26.153 136.818 27.111L136.707 23.871Z" fill="white"/>
<path d="M157.918 35.031C160.423 35.031 161.24 32.383 161.24 30.325C161.24 28.296 160.282 25.704 157.86 25.704C155.409 25.704 154.731 28.381 154.731 30.325C154.731 32.326 155.436 35.031 157.918 35.031ZM161.382 35.988H161.325C160.197 37.396 158.649 37.959 156.874 37.959C152.422 37.959 150.787 34.298 150.787 30.325C150.787 26.325 152.422 22.775 156.874 22.775C158.762 22.775 160.087 23.422 161.215 24.803H161.268V16.491H165.044V37.622H161.382V35.988Z" fill="white"/>
<path d="M169.008 16.857H172.783V20.461H169.008V16.857ZM169.008 23.112H172.783V37.622H169.008V23.112Z" fill="white"/>
<path d="M183.399 35.031C186.299 35.031 187.063 32.438 187.063 30.014C187.063 27.788 185.879 25.704 183.399 25.704C180.948 25.704 179.765 27.844 179.765 30.014C179.766 32.41 180.525 35.031 183.399 35.031ZM183.399 22.775C187.711 22.775 191.008 25.677 191.008 30.467C191.008 34.637 188.216 37.959 183.399 37.959C178.607 37.959 175.82 34.637 175.82 30.467C175.82 25.677 179.117 22.775 183.399 22.775Z" fill="white"/>
<path d="M200.411 28.493H192.999V31.592H200.411V28.493Z" fill="white"/>
<path d="M217.982 37.342C216.544 37.68 214.995 37.959 213.5 37.959C207.135 37.959 202.712 34.776 202.712 28.127C202.712 21.394 206.826 17.618 213.5 17.618C214.798 17.618 216.517 17.87 217.955 18.434L217.672 21.76C216.18 20.914 214.827 20.717 213.417 20.717C209.36 20.717 206.826 23.816 206.826 27.844C206.826 31.846 209.305 34.861 213.5 34.861C215.053 34.861 216.883 34.522 217.813 34.044L217.982 37.342Z" fill="white"/>
<path d="M225.61 35.198C226.763 35.198 227.664 34.693 228.256 33.903C228.874 33.086 229.047 32.042 229.047 30.915H227.409C225.72 30.915 223.213 31.198 223.213 33.424C223.214 34.664 224.255 35.198 225.61 35.198ZM221.186 23.871C222.652 23.196 224.624 22.775 226.231 22.775C230.652 22.775 232.484 24.604 232.484 28.887V30.746C232.484 32.212 232.512 33.311 232.541 34.382C232.57 35.483 232.624 36.496 232.713 37.622H229.384C229.244 36.861 229.244 35.902 229.218 35.452H229.161C228.286 37.057 226.4 37.959 224.682 37.959C222.117 37.959 219.609 36.41 219.609 33.649C219.609 31.479 220.652 30.212 222.09 29.507C223.525 28.803 225.386 28.661 226.963 28.661H229.049C229.049 26.324 228.005 25.535 225.778 25.535C224.173 25.535 222.565 26.153 221.299 27.111L221.186 23.871Z" fill="white"/>
<path d="M236.196 23.112H239.776V25.084H239.831C241.016 23.423 242.622 22.775 244.594 22.775C248.032 22.775 249.526 25.197 249.526 28.464V37.622H245.749V29.872C245.749 28.098 245.723 25.705 243.298 25.705C240.566 25.705 239.976 28.663 239.976 30.522V37.623H236.198V23.112" fill="white"/>
<path d="M258.475 35.198C259.63 35.198 260.532 34.693 261.124 33.903C261.741 33.086 261.915 32.042 261.915 30.915H260.277C258.588 30.915 256.08 31.198 256.08 33.424C256.08 34.664 257.121 35.198 258.475 35.198ZM254.051 23.871C255.517 23.196 257.49 22.775 259.098 22.775C263.518 22.775 265.35 24.604 265.35 28.887V30.746C265.35 32.212 265.379 33.311 265.408 34.382C265.435 35.483 265.491 36.496 265.579 37.622H262.253C262.11 36.861 262.11 35.902 262.084 35.452H262.026C261.152 37.057 259.265 37.959 257.547 37.959C254.982 37.959 252.474 36.41 252.474 33.649C252.474 31.479 253.515 30.212 254.956 29.507C256.39 28.803 258.251 28.661 259.827 28.661H261.915C261.915 26.324 260.871 25.535 258.644 25.535C257.038 25.535 255.432 26.153 254.165 27.111L254.051 23.871Z" fill="white"/>
<path d="M275.261 35.031C277.77 35.031 278.587 32.383 278.587 30.325C278.587 28.296 277.628 25.704 275.205 25.704C272.756 25.704 272.078 28.381 272.078 30.325C272.078 32.326 272.784 35.031 275.261 35.031ZM278.727 35.988H278.672C277.546 37.396 275.997 37.959 274.222 37.959C269.77 37.959 268.133 34.298 268.133 30.325C268.133 26.325 269.77 22.775 274.222 22.775C276.107 22.775 277.432 23.422 278.559 24.803H278.616V16.491H282.391V37.622H278.727V35.988Z" fill="white"/>
<path d="M291.341 35.198C292.497 35.198 293.4 34.693 293.99 33.903C294.608 33.086 294.781 32.042 294.781 30.915H293.142C291.454 30.915 288.947 31.198 288.947 33.424C288.947 34.664 289.988 35.198 291.341 35.198ZM286.918 23.871C288.383 23.196 290.356 22.775 291.962 22.775C296.384 22.775 298.217 24.604 298.217 28.887V30.746C298.217 32.212 298.243 33.311 298.275 34.382C298.302 35.483 298.359 36.496 298.445 37.622H295.117C294.977 36.861 294.977 35.902 294.948 35.452H294.891C294.019 37.057 292.132 37.959 290.414 37.959C287.849 37.959 285.341 36.41 285.341 33.649C285.341 31.479 286.382 30.212 287.82 29.507C289.257 28.803 291.116 28.661 292.693 28.661H294.781C294.781 26.324 293.737 25.535 291.51 25.535C289.904 25.535 288.3 26.153 287.033 27.111L286.918 23.871Z" fill="white"/>
<path d="M17.0005 37.4C15.5625 37.739 14.0135 38.02 12.5195 38.02C6.15252 38.02 1.72852 34.836 1.72852 28.189C1.72852 21.453 5.84152 17.678 12.5195 17.678C13.8175 17.678 15.5345 17.93 16.9725 18.494L16.6895 21.82C15.1985 20.974 13.8435 20.776 12.4365 20.776C8.37852 20.776 5.84252 23.874 5.84252 27.904C5.84252 31.906 8.32352 34.922 12.5205 34.922C14.0725 34.922 15.9015 34.584 16.8335 34.104L17.0005 37.4Z" fill="white"/>
<path d="M23.8376 25.962H25.4436C27.1056 25.962 29.1626 25.596 29.1626 23.566C29.1626 21.284 27.1626 21.115 25.3586 21.115H23.8376V25.962ZM23.8376 34.585H25.6966C27.5296 34.585 29.7546 34.134 29.7546 31.851C29.7546 29.286 27.6696 28.891 25.6966 28.891H23.8376V34.585ZM19.8936 18.017H26.7686C29.3036 18.017 33.1066 18.749 33.1066 23.059C33.1066 25.398 31.5286 27.032 29.1906 27.455V27.509C31.8676 27.764 33.6986 29.569 33.6986 31.99C33.6986 36.949 29.2476 37.682 26.7676 37.682H19.8926L19.8936 18.017Z" fill="white"/>
<path d="M51.4126 37.4C49.9756 37.739 48.4276 38.02 46.9336 38.02C40.5646 38.02 36.1416 34.836 36.1416 28.189C36.1416 21.453 40.2566 17.678 46.9336 17.678C48.2286 17.678 49.9486 17.93 51.3866 18.494L51.1026 21.82C49.6106 20.974 48.2586 20.776 46.8496 20.776C42.7936 20.776 40.2566 23.874 40.2566 27.904C40.2566 31.906 42.7366 34.922 46.9346 34.922C48.4846 34.922 50.3176 34.584 51.2456 34.104L51.4126 37.4Z" fill="white"/>
</svg>
